<?xml version="1.0" encoding="utf-8"?>
<!-- Generator: Adobe Illustrator 15.1.0, SVG Export Plug-In . SVG Version: 6.00 Build 0)  -->
<!DOCTYPE svg PUBLIC "-//W3C//DTD SVG 1.1//EN" "http://www.w3.org/Graphics/SVG/1.1/DTD/svg11.dtd">
<svg version="1.1" id="Layer_1" xmlns:ev="http://www.w3.org/2001/xml-events"
	 xmlns="http://www.w3.org/2000/svg" xmlns:xlink="http://www.w3.org/1999/xlink" x="0px" y="0px" width="270px" height="270px"
	 viewBox="0 0 270 270" enable-background="new 0 0 270 270" xml:space="preserve">
<path fill="#FFFFFF" d="M0,0v270h270V0H0z"/>
<path d="M10,10v70h70V10H10 M100,10v10h10V10H100 M150,10v30h-10v10h20V40h10V20h10V10h-10v10h-10V10H150 M190,10v70h70V10H190z"/>
<path fill="#FFFFFF" d="M20,20v50h50V20H20z"/>
<path d="M120,20v10h-10v10h10v10h10V40h-10V30h20V20H120z"/>
<path fill="#FFFFFF" d="M200,20v50h50V20H200z"/>
<path d="M30,30v30h30V30H30 M90,30v60h10v20H60v-10h20V90H30v10H20V90H10v20h10v10H10v60h10v-30h20v10H30v20h10v-20h10v20h40v10h10
	v10H90v40h10v10H90v10h60v-10h10v10h10v-10h10v10h10v-10h10v10h60v-40h-20v-10h-10v-10h20v10h10v-20h-20v-20h-10v-30h10v20h10v10h10
	v-20h-10v-10h10v-30h-10v-10h-10V90h-50v10h10v10h-10v10h-10V70h-10V60h10V50h-10v10h-10v10h-10V60h-20v30h-20V80h10V70h-10V50h-10
	V30H90 M210,30v30h30V30H210z"/>
<path fill="#FFFFFF" d="M100,70v10h10V70H100 M140,70v20h10v20h20v-10h-10V80h10V70h-10v10h-10V70H140 M30,100v10h20v10H30v10H20v10
	h20v-10h10v30h20v10h10v-10h10v-20h10v-20H70v10h10v10H70v10H60v-40H50v-10H30 M130,100v10h-10v10h10v10h-20v20h10v30h-10v-20h-10
	v10H90v10h10v10h10v10h-10v20h10v-20h10v-10h20v-10h-10v-20h10v10h10v-10h10v10h10v-10h-10v-10h10v-10h10v10h10v20h20v-10h-10v-20
	h10v10h10v-10h10v-10h20v-10h-10v-20h-30v10h-10v30h-20v-20h-10v10h-10v-10h-30v-10h10v-10H130z"/>
<path d="M220,110v10h-10v20h10v-20h10v-10H220 M140,130v10h-10v10h10v10h10v-10h-10v-10h20v-10H140 M70,150v10h10v-10H70z"/>
<path fill="#FFFFFF" d="M220,170v10h10v-10H220 M150,180v10h10v20h10v-20h-10v-10H150 M180,180v30h30v-30H180z"/>
<path d="M10,190v70h70v-70H10 M190,190v10h10v-10H190z"/>
<path fill="#FFFFFF" d="M20,200v50h50v-50H20 M130,200v10h20v-10H130z"/>
<path d="M30,210v30h30v-30H30z"/>
<path fill="#FFFFFF" d="M120,220v10h-20v10h30v10h20v-20h10v10h10v-10h-10v-10h-10v10h-20v-10H120 M200,220v10h-10v10h-10v10h10v-10
	h10v-10h10v10h20v10h20v-20h-10v10h-10v-20h-10v10h-10v-10H200z"/>
<g>
	<rect x="110.928" y="105.937" fill="#FFFFFF" stroke="#FFFFFF" stroke-miterlimit="10" width="50" height="48.127"/>
	<ellipse fill="#6C82C2" cx="145.018" cy="129.045" rx="11.742" ry="14.323"/>
	<rect x="115.094" y="114.913" fill="#243159" width="21.969" height="28.646"/>
	<g>
		<path fill="#DAE0F0" d="M131.704,119.42c1.377,0.457,2.492,1.293,3.345,2.511c0.684,0.985,1.15,2.05,1.398,3.196
			c0.25,1.146,0.373,2.238,0.373,3.276c0,2.632-0.523,4.861-1.572,6.687c-1.421,2.462-3.616,3.693-6.583,3.693h-8.463V118.99h8.463
			C129.882,119.008,130.895,119.151,131.704,119.42z M124.184,122.428v12.918h3.788c1.938,0,3.29-0.962,4.055-2.887
			c0.417-1.056,0.627-2.314,0.627-3.773c0-2.014-0.314-3.561-0.94-4.639c-0.627-1.079-1.874-1.618-3.741-1.618H124.184z"/>
	</g>
	<g>
		<path fill="#12192D" d="M141.16,131.277v0.457c0.033,1.531,0.189,2.607,0.469,3.229c0.279,0.623,0.878,0.934,1.795,0.934
			c0.909,0,1.51-0.34,1.802-1.021c0.175-0.403,0.263-1.083,0.263-2.041V118.99h4.102v13.777c0,1.683-0.282,3.017-0.847,4.001
			c-0.955,1.665-2.678,2.498-5.169,2.498c-2.492,0-4.163-0.674-5.014-2.021c-0.851-1.348-1.275-3.185-1.275-5.513v-0.457H141.16z"/>
	</g>
</g>
</svg>
