<?xml version="1.0" encoding="utf-8"?>
<!-- Generator: Adobe Illustrator 15.1.0, SVG Export Plug-In . SVG Version: 6.00 Build 0)  -->
<!DOCTYPE svg PUBLIC "-//W3C//DTD SVG 1.1//EN" "http://www.w3.org/Graphics/SVG/1.1/DTD/svg11.dtd">
<svg version="1.1" id="Layer_1" xmlns:ev="http://www.w3.org/2001/xml-events"
	 xmlns="http://www.w3.org/2000/svg" xmlns:xlink="http://www.w3.org/1999/xlink" x="0px" y="0px" width="390px" height="390px"
	 viewBox="0 0 390 390" enable-background="new 0 0 390 390" xml:space="preserve">
<path fill="#3A1709" d="M10,10v70h70V10H10 M130,10v20h10v10h-10v10h-10V30h-10v20h-10V30H90v60h20V80h10V70h10v10h10v10h-20v20h-10
	v-10H90v10H50v10H40v-20h40V90H30v10H20V90H10v10h10v10H10v20h10v-20h10v30h10v10h10v-30h10v10h10v10h20v10H60v10H50v10H30v-10H20
	v-10H10v10h10v10H10v10h10v-10h10v10h10v20h10v20h10v-20H50v-10h10v-10H50v-10h20v10h10v-10H70v-10h20v-10h10v-30h30v-10h20v-10h-10
	V90h20v30h-20v20h-10v20h10v-20h40v-10h-10v-10h30v30h-10v10h10v-10h20v-10h-10v-10h20v-10h10v30h-10v10h10v-10h10v20h-60v10h-20
	v-20h10v-10h-20v20h-30v10h-10v-20h-10v30h-10v10H80v-10H70v10h10v10H70v10h10v10H60v10H50v-10H20v-10H10v10h10v10H10v60h10v-30h10
	v10h10v-10H30v-10H20v-10h10v-10h20v10H40v10h10v10h10v-30h20v10H70v10h10v10H70v10H60v20h30v10h40v20h10v-10h10v40h-10v-10h-10v-10
	h-10v-10h-10v-10H90v40h20v10H90v10h30v-20h10v20h20v-20h10v-10h20v10h-10v10h10v10h10v-10h10v-10h-10v-10h-10v-10h-20v-10h10v-10
	h10v-20h10v20h10v-10h20v-10h-10v-10h20v30h10v-10h10v-10h20v10h-10v10h10v10h-20v10h-10v-10h-30v10h10v10h-10v10h10v10h10v-10h-10
	v-10h10v-10h10v10h10v-10h30v10h10v-10h20v10h-10v10h-30v-10h-10v10h-10v20h30v-10h30v10h70v-70h-20v10h10v10h-10v10h10v10h-10v10
	h10v10h-20v-10h-10v10h-30v-20h10v-10h10v10h10v-30h10v-20h10v-10h-70v10h-10v-10h-50v-10h10v-20h40v-10h-30v-10h10v-10h10v-10h10
	v-10h10v-10h10v20h-10v10h-10v10h20v20h-10v10h-30v10h30v-10h10v-10h20v10h-10v10h10v-10h10v-10h30v-10h20v-20h-20v-10h20v-30h-20
	v-10h10v-10h-40v-10h20v-10h10v10h20v-10h-20v-20h10v10h10v-10h-10v-10h10v-10h-20V90h-50v10h10v20h-10v-10h-10v-10h-10V90h10V70
	h-10V60h10V10h-10v10h-10v10h10v10h-40V30h20V20h-30v20h-10V10h-10v10h-10v10h10v10h10v10h-30v10h10v20h10v20h-10v10h-10v-10h-10v10
	h-20v-10h10V90h20V70h-10V40h-20v10h-10V40h-10V30h10V20h10v10h20V10h-30v10h-10V10H130 M310,10v70h70V10H310 M70,20v50H20V20H70
	 M150,20v10h-10V20H150 M370,20v50h-50V20H370 M30,30v30h30V30H30 M330,30v30h30V30H330 M150,40v20h10v10h10v20h-10V70h-10v10h-10
	V70h-10V50h10V40H150 M120,50v20h-10v10h-10V70h10V50H120 M290,50v10h-20V50H290 M260,60v10h10v10h10V70h10v20h-40V80h-10V70h-10v10
	h-10V70h10V60H260 M190,70v10h-10V70H190 M250,70v10h10V70H250 M240,90v10h10v20h20v10h-20v-10h-10v-20h-10v10h-10v10h-10v-10h10
	v-10h10V90H240 M290,100v10h10v10h10v10h-20v20h-20v10h10v10h10v-10h20v-10h-10v-10h20v-10h10v10h10v10h-10v10h-10v10h10v10h20v20
	h10v10h-10v30h10v10h-10v-10h-10v10h-10v-10h-20v-20h10v-30h-10v10h-10v-20h-10v10h-20v10h10v10h-20v-20h10v-10h10v-10h-20v-20h-10
	v-10h30v-10h10v-20h-20v-10H290 M350,100v10h10v20h-20v-10h10v-10h-20v-10H350 M90,120v10H70v-10H90 M110,130v20h10v-20H110
	 M320,140v10h10v-10H320 M300,170v10h20v10h10v30h-10v10h10v10h10v-10h-10v-10h10v-30h-10v-10h-10v-10H300 M220,180v10h-10v10h10v10
	h10v-30h10v10h10v30h10v10h-10v10h-20v-10h20v-10h-10v-10h-10v10h-30v-20h-10v10h-10v10h-10v10h10v20h20v10h10v-20h-20v-10h20v10h10
	v20h-10v10h10v10h-10v-10h-10v10h-10v10h10v10h-10v-10h-20v-10h20v-10h-20v-10h10v-10h-20v-10h10v-10h-10v-20h-10v20h-10v20h-10v20
	h-10v-20h-10v10h-10v10h10v20h-10v10H90v-10H70v-10h20v-20H80v-10h10v-10h10v-10h10v-10h10v-10h-20v-10h20v-10h20v10h-20v10h10v10
	h10v-10h10v-10h10v-10h30v-10H220 M10,190v20h20v10h10v-10H30v-10H20v-10H10 M170,200v10h10v-10H170 M90,210v10H80v-10H90 M120,220
	v10h10v-10H120 M90,250v10h10v-10H90 M240,250v10h-10v-10H240 M160,260v40h10v10h-10v-10h-10v-10h-10v10h-20v-20h10v10h10v-10h10
	v-10h-10v-10H160 M190,260v10h10v-10H190 M340,270v10h40v-10H340 M90,280v10h10v-10H90 M30,290v10h20v-10H30 M370,290v10h10v-10H370
	 M330,300v30h-30v-30H330 M10,310v70h70v-70H10 M290,310v20h-10v-10h-10v-10H290 M310,310v10h10v-10H310 M70,320v50H20v-50H70
	 M30,330v30h30v-30H30 M190,330v10h10v-10H190 M120,350v10h-10v-10H120 M190,360v10h-10v-10H190 M270,360v10h-10v-10H270z"/>
<g>
	<rect x="152.928" y="155" fill="#FFFFFF" stroke="#FFFFFF" stroke-miterlimit="10" width="80" height="80"/>
	<ellipse fill="#6C82C2" cx="207.473" cy="193.413" rx="18.788" ry="23.81"/>
	<rect x="159.595" y="169.92" fill="#243159" width="35.151" height="47.62"/>
	<g>
		<path fill="#DAE0F0" d="M186.17,177.417c2.203,0.759,3.987,2.15,5.352,4.174c1.095,1.637,1.841,3.408,2.239,5.312
			c0.398,1.905,0.598,3.72,0.598,5.446c0,4.375-0.839,8.081-2.517,11.116c-2.274,4.093-5.786,6.139-10.534,6.139h-13.541v-32.902
			h13.541C183.256,176.733,184.876,176.971,186.17,177.417z M174.138,182.417v21.474h6.061c3.102,0,5.264-1.6,6.487-4.8
			c0.668-1.756,1.003-3.846,1.003-6.272c0-3.348-0.501-5.919-1.504-7.712c-1.003-1.793-2.998-2.69-5.986-2.69H174.138z"/>
	</g>
	<g>
		<path fill="#12192D" d="M201.3,197.127v0.759c0.053,2.545,0.303,4.334,0.75,5.368s1.404,1.552,2.872,1.552
			c1.454,0,2.415-0.565,2.883-1.696c0.279-0.67,0.42-1.801,0.42-3.394v-23.013h6.562v22.902c0,2.798-0.451,5.015-1.354,6.651
			c-1.527,2.769-4.284,4.152-8.271,4.152s-6.66-1.12-8.021-3.359c-1.36-2.239-2.041-5.294-2.041-9.163v-0.759H201.3z"/>
	</g>
</g>
</svg>
